<svg width="12" height="12" viewBox="0 0 12 12" fill="none" xmlns="http://www.w3.org/2000/svg">
<path d="M4.24996 10.6666H1.91663C1.75563 10.6666 1.61038 10.6019 1.50421 10.4957C1.39804 10.3895 1.33329 10.2443 1.33329 10.0833V1.91663C1.33329 1.75563 1.39804 1.61038 1.50421 1.50421C1.61038 1.39804 1.75563 1.33329 1.91663 1.33329H4.24996C4.57196 1.33329 4.83329 1.07196 4.83329 0.749959C4.83329 0.427959 4.57196 0.166626 4.24996 0.166626H1.91663C1.43363 0.166626 0.994959 0.363209 0.679376 0.679376C0.363793 0.995543 0.166626 1.43363 0.166626 1.91663V10.0833C0.166626 10.5663 0.363209 11.005 0.679376 11.3205C0.995543 11.6361 1.43363 11.8333 1.91663 11.8333H4.24996C4.57196 11.8333 4.83329 11.572 4.83329 11.25C4.83329 10.928 4.57196 10.6666 4.24996 10.6666ZM9.84179 5.41663H4.24996C3.92796 5.41663 3.66663 5.67796 3.66663 5.99996C3.66663 6.32196 3.92796 6.58329 4.24996 6.58329H9.84179L7.92088 8.50421C7.69279 8.73229 7.69279 9.10154 7.92088 9.32904C8.14896 9.55654 8.51821 9.55713 8.74571 9.32904L11.6624 6.41238C11.716 6.35871 11.7592 6.29454 11.789 6.22338C11.8765 6.01221 11.8345 5.75963 11.6624 5.58754L8.74571 2.67088C8.51763 2.44279 8.14838 2.44279 7.92088 2.67088C7.69338 2.89896 7.69279 3.26821 7.92088 3.49571L9.84179 5.41663Z" fill="#ED1C25"/>
</svg>
