<svg width="12" height="14" viewBox="0 0 12 14" fill="none" xmlns="http://www.w3.org/2000/svg">
<path d="M10.0833 2.91671H1.91664L2.79164 1.75004H9.20831L10.0833 2.91671ZM11.7131 3.14537L9.96664 0.816707C9.85231 0.664457 9.67847 0.583957 9.49997 0.583374H2.49997C2.30981 0.583374 2.14064 0.674374 2.03331 0.816707L0.286806 3.14537C0.261723 3.17804 0.239556 3.21362 0.222056 3.25154C0.18414 3.33146 0.166056 3.41662 0.16664 3.50004V11.6667C0.16664 12.1497 0.363223 12.5884 0.67939 12.904C0.995556 13.2195 1.43364 13.4167 1.91664 13.4167H10.0833C10.5663 13.4167 11.005 13.2201 11.3206 12.904C11.6361 12.5878 11.8333 12.1497 11.8333 11.6667V3.50004C11.8333 3.37229 11.7919 3.25387 11.7231 3.15879C11.7207 3.15587 11.719 3.15296 11.7166 3.15004L11.7131 3.14537ZM1.33331 4.08337H10.6666V11.6667C10.6666 11.8277 10.6019 11.973 10.4957 12.0791C10.3896 12.1853 10.2443 12.25 10.0833 12.25H1.91664C1.75564 12.25 1.61039 12.1853 1.50422 12.0791C1.39806 11.973 1.33331 11.8277 1.33331 11.6667V4.08337ZM7.74997 5.83337C7.74997 6.31696 7.55456 6.75329 7.23722 7.07062C6.91989 7.38796 6.48356 7.58337 5.99997 7.58337C5.51639 7.58337 5.08006 7.38796 4.76272 7.07062C4.44539 6.75329 4.24997 6.31696 4.24997 5.83337C4.24997 5.51137 3.98864 5.25004 3.66664 5.25004C3.34464 5.25004 3.08331 5.51137 3.08331 5.83337C3.08331 6.63837 3.41056 7.36871 3.93731 7.89604C4.46406 8.42337 5.19497 8.75004 5.99997 8.75004C6.80497 8.75004 7.53531 8.42279 8.06264 7.89604C8.58997 7.36929 8.91664 6.63837 8.91664 5.83337C8.91664 5.51137 8.65531 5.25004 8.33331 5.25004C8.01131 5.25004 7.74997 5.51137 7.74997 5.83337Z" fill="#ED1C25"/>
</svg>
