<svg width="11" height="14" viewBox="0 0 11 14" fill="white" xmlns="http://www.w3.org/2000/svg">
<path d="M9.5 14.018H1.625C1.14156 14.018 0.75 13.6273 0.75 13.1448V2.60231C0.75 2.12019 1.14156 1.7295 1.625 1.7295H3.8125V2.63906H2.0625C1.821 2.63906 1.625 2.83419 1.625 3.07569V12.7081C1.625 12.9501 1.821 13.1448 2.0625 13.1448H9.0625C9.30444 13.1448 9.5 12.9501 9.5 12.7081V3.07569C9.5 2.83419 9.30444 2.63906 9.0625 2.63906H7.3125V1.7295H9.5C9.983 1.7295 10.375 2.12063 10.375 2.60231V13.1448C10.375 13.6273 9.983 14.018 9.5 14.018ZM3.8125 5.25838H8.625V5.695H3.8125V5.25838ZM3.8125 6.56825H8.625V7.00488H3.8125V6.56825ZM3.8125 7.87856H8.625V8.31519H3.8125V7.87856ZM3.8125 9.18844H8.625V9.62506H3.8125V9.18844ZM8.625 12.2439H3.8125V11.8082H8.625V12.2439ZM3.8125 10.4983H8.625V10.9349H3.8125V10.4983ZM2.5 5.24963H2.9375V5.68625H2.5V5.24963ZM2.5 6.5595H2.9375V6.99613H2.5V6.5595ZM2.5 7.86894H2.9375V8.30556H2.5V7.86894ZM2.5 9.17881H2.9375V9.61544H2.5V9.17881ZM2.9375 12.2356H2.5V11.799H2.9375V12.2356ZM2.5 10.4891H2.9375V10.9258H2.5V10.4891ZM8.1875 3.10238C8.42944 3.10238 8.625 3.29794 8.625 3.53944C8.625 3.7805 8.625 4.38513 8.625 4.38513H2.5C2.5 4.38513 2.5 3.7805 2.5 3.53944C2.5 3.29794 2.69556 3.10238 2.9375 3.10238H4.25C4.25 3.10238 4.25525 2.48156 4.25525 1.77194C4.25525 1.03519 4.824 0.419189 5.5625 0.419189C6.301 0.419189 6.88944 1.06669 6.88944 1.77631C6.88944 2.54063 6.875 3.10238 6.875 3.10238H8.1875ZM5.5625 1.7295C5.32056 1.7295 5.125 1.92463 5.125 2.16569C5.125 2.40719 5.32056 2.60231 5.5625 2.60231C5.80444 2.60231 6 2.40719 6 2.16569C6 1.92463 5.80444 1.7295 5.5625 1.7295Z" fill="#ED1C25"/>
</svg>
